PathFileType	4	(X/Y/Z)	AB03\squats_1.trc
DataRate	CameraRate	NumFrames	NumMarkers	Units	OrigDataRate	OrigDataStartFrame	OrigNumFrames
200.000000	200.000000	4	35	mm	200.000000	154	309
Frame#	Time	C7			LSHO			STRN			LASI			RASI			LPSI			RPSI			LGTR			RGTR			LTHC			LTHL			LTHR			LKNE			LMKNE			LSHC			LSHL			LSHR			LANK			LMANK			LMT1			LMT5			LCAL			RTHC			RTHL			RTHR			RKNE			RMKNE			RSHC			RSHL			RSHR			RANK			RMANK			RMT1			RMT5			RCAL			
		X1	Y1	Z1	X2	Y2	Z2	X3	Y3	Z3	X4	Y4	Z4	X5	Y5	Z5	X6	Y6	Z6	X7	Y7	Z7	X8	Y8	Z8	X9	Y9	Z9	X10	Y10	Z10	X11	Y11	Z11	X12	Y12	Z12	X13	Y13	Z13	X14	Y14	Z14	X15	Y15	Z15	X16	Y16	Z16	X17	Y17	Z17	X18	Y18	Z18	X19	Y19	Z19	X20	Y20	Z20	X21	Y21	Z21	X22	Y22	Z22	X23	Y23	Z23	X24	Y24	Z24	X25	Y25	Z25	X26	Y26	Z26	X27	Y27	Z27	X28	Y28	Z28	X29	Y29	Z29	X30	Y30	Z30	X31	Y31	Z31	X32	Y32	Z32	X33	Y33	Z33	X34	Y34	Z34	X35	Y35	Z35	

155	25.26	-2123.558035348932	1173.960140821985	2478.835275755907	-2053.749300609113	1093.499412777321	2357.982072736431	-2090.243469974983	983.4681839709421	2495.889271006343	-2388.005518320597	797.2365772636442	2333.751304958642	-2400.394625794516	784.8386426547144	2654.779416733412	-2556.762501826249	984.3091918390164	2433.905277477944	-2559.322084423963	984.9844780424702	2536.973059697078	-2479.577951655791	837.4942036257074	2259.987065537573	-2484.736270371625	839.3004187330345	2726.793479890104	-2431.040057862993	755.9614662696412	2229.085034166483	-2309.335646550459	737.4213780035772	2348.117206599439	-2508.986261129788	604.3708599571246	2252.414391963623	-2226.258238386382	511.9484210284436	2199.244899749467	-2231.347139550394	463.2250606204589	2358.706636847392	-2310.118729654161	302.5112976389598	2148.30195305042	-2234.710643655166	258.8976397566682	2205.506256902369	-2368.068638386483	251.8400635852622	2222.384639859963	-2330.066187346609	121.3081189637127	2143.996885753748	-2296.701028449668	111.3040777609376	2240.880207984559	-2193.299787804199	58.98305242879393	2210.412196527728	-2219.851769089173	56.50366795814776	2104.619490459398	-2406.59202145565	69.75604269805787	2199.984949565787	-2487.391076870739	555.0549780597814	2676.210481548634	-2436.625164953136	705.7919894516524	2762.244101223319	-2311.319499586945	741.0281714980728	2626.278982172665	-2226.273327776844	516.1801876433351	2767.315730967536	-2198.412524528333	489.7611408606915	2612.304134930007	-2358.893039669681	224.380069187412	2725.520449044074	-2286.757790612841	312.266450430766	2800.848870016169	-2231.074952128569	260.7764513664152	2740.353840691039	-2326.529692236802	115.6799756924704	2795.140552673808	-2305.340320310852	117.1179143386087	2702.533960547265	-2179.613947430147	51.30952625529062	2707.846727633378	-2206.263780187162	56.38964954994093	2823.652140092051	-2401.424540625426	68.39725858354683	2741.654706647373	
156	25.265	-2123.587583549079	1175.48869431205	2479.12390232558	-2053.868454408994	1095.000528854938	2358.026709024457	-2090.202513845905	985.0096079355778	2495.926921043416	-2387.957512690916	798.062051383698	2333.785555755198	-2400.431961961696	785.7697154833528	2654.881809382107	-2556.62362515314	985.4766787059655	2433.99202858636	-2559.173086478551	986.1668751282795	2537.052245820689	-2479.482701201145	838.3368003792399	2259.970523070806	-2484.587925154044	840.1961422661326	2726.995242504177	-2431.046256485558	756.6914672875314	2229.194088810158	-2309.322811553306	738.0032147215466	2348.162888390651	-2509.251601198225	605.2483472201028	2252.587940584343	-2226.774678006946	512.1096346274416	2199.42953933311	-2231.947509229243	463.4771382638832	2358.910554899009	-2310.40252587294	302.593609930035	2148.365697194723	-2234.977783401296	259.0397063085318	2205.598916770464	-2368.318485877337	251.8337796064157	2222.410587116122	-2330.130545809198	121.3352816702681	2144.008636503411	-2296.781354943691	111.344140920463	2240.88645013171	-2193.348912330639	59.04131928776638	2210.457986026682	-2219.882914745179	56.5777143865262	2104.675024571832	-2406.621033053253	69.73841632118862	2199.981034390724	-2487.747453008833	555.9430961522129	2675.965856978918	-2436.648820733742	706.4634976515731	2762.178706500638	-2311.327206206885	741.5538028246248	2626.161463343422	-2226.722771299143	516.3243760931607	2766.951637981221	-2199.047929311078	489.8895808737634	2611.946401629507	-2359.080899177792	224.3391007642269	2725.428036699912	-2287.00870226293	312.3592009208232	2800.652156668572	-2231.313707155879	260.8829000027494	2740.158832803563	-2326.576333239491	115.6983187137004	2795.103804985608	-2305.414521109443	117.1038209792541	2702.498495796997	-2179.641272631822	51.31497151102906	2707.800063936217	-2206.267068496179	56.44542288524908	2823.578231266948	-2401.425263769209	68.38130499453247	2741.661218601101	
157	25.27	-2123.642934528963	1177.071706553308	2479.399666707689	-2053.99108528707	1096.551901879784	2358.060343299306	-2090.162450838628	986.6122329056906	2495.964844223387	-2387.902171312353	798.9102808357139	2333.812324497584	-2400.46117213975	786.7396298881301	2654.98054215426	-2556.473492368887	986.6851122874331	2434.073225911581	-2559.010484099638	987.3926808051601	2537.125956368574	-2479.380409030522	839.2031313471274	2259.944784408959	-2484.417809515476	841.1271201328026	2727.193181708847	-2431.050505430123	757.4422603310912	2229.300371189414	-2309.304752962122	738.5984373341598	2348.205392514319	-2509.524287772761	606.1566999759197	2252.762534094658	-2227.304898169947	512.2758099243048	2199.61561361072	-2232.565057975301	463.7394937205459	2359.118186638228	-2310.694374047683	302.6775037975719	2148.426319221634	-2235.25450184897	259.185122377964	2205.691483619627	-2368.578731516609	251.8285779155394	2222.43085528913	-2330.198641944952	121.3610685473731	2144.0204986545	-2296.871765243355	111.3801212695833	2240.88637195296	-2193.401311262618	59.10360790574774	2210.507585645594	-2219.914938035379	56.65400617501218	2104.732507003538	-2406.65212948408	69.71918060942491	2199.975671509144	-2488.109523356128	556.8705098028404	2675.723998138997	-2436.664971867514	707.1643816367082	2762.105379954119	-2311.325851592565	742.0863769528167	2626.037794536922	-2227.182451659144	516.4730298847511	2766.577457878668	-2199.709126375894	490.0165150412298	2611.578346682028	-2359.275828434286	224.29742298078	2725.337595281273	-2287.261649080237	312.4570610654136	2800.452293128159	-2231.560115820358	260.9920030850077	2739.957485323179	-2326.623540058324	115.7166375528624	2795.065055789514	-2305.493158605601	117.0896656319791	2702.461817037941	-2179.669708208405	51.32157011139334	2707.750815020139	-2206.271581637518	56.50175196523726	2823.502400026473	-2401.4260213781	68.36394137380033	2741.667793921139	
158	25.275	-2123.726785083211	1178.70579427071	2479.659996013158	-2054.117267672381	1098.1513979395	2358.083076860642	-2090.125564259699	988.2727736407766	2496.003751813168	-2387.838789117599	799.7788210187656	2333.83089818801	-2400.480800575951	787.7467713049723	2655.075074352378	-2556.312904418702	987.931284686571	2434.148229677412	-2558.834812405636	988.6588711937952	2537.193817304256	-2479.271247395925	840.0904069218924	2259.909335892604	-2484.225697847471	842.0908611575724	2727.386204162604	-2431.052520527142	758.2114163333782	2229.403200088549	-2309.281114007768	739.2050181741097	2348.244248600772	-2509.8031164298	607.0931053015731	2252.9376973295	-2227.84743725484	512.446495369586	2199.801677495392	-2233.197433917421	464.0108049874343	2359.327832919301	-2310.993714845448	302.7626384530507	2148.483209943375	-2235.539930452296	259.3334095816108	2205.783133644245	-2368.848483186052	251.8243595816455	2222.445188855664	-2330.27035125378	121.3852341144703	2144.032188158908	-2296.972296388917	111.4116001469	2240.879496193485	-2193.45674083352	59.16986294694202	2210.560907362725	-2219.947621956625	56.73203340273335	2104.791622879906	-2406.685253648994	69.6984142608032	2199.96876678389	-2488.47604007451	557.834739700002	2675.486057175027	-2436.673307001012	707.8928995610457	2762.023837323745	-2311.314123336295	742.6251569956204	2625.909553736897	-2227.651207139542	516.6257381922301	2766.195408974588	-2200.393595866534	490.1417299497576	2611.202579911366	-2359.477270032565	224.2550849795544	2725.249815050023	-2287.51572683842	312.5597853150612	2800.250897593085	-2231.813414166341	261.1033748364876	2739.751227994419	-2326.671228372441	115.7347541264986	2795.024818682384	-2305.575759788286	117.0754912742561	2702.424353872755	-2179.69911700935	51.32939984974139	2707.699286936564	-2206.277286716073	56.55823950837691	2823.425172961161	-2401.426989271634	68.34527968961039	2741.674382803298	
